HIERARCHY
ROOT Hips
{
    OFFSET   0.000000   0.000000   0.000000
    CHANNELS 6 Xposition Yposition Zposition Zrotation Xrotation Yrotation
    JOINT Chest
    {
        OFFSET   0.000000   8.007230   0.000000
        CHANNELS 3 Zrotation Xrotation Yrotation
        JOINT Chest2
        {
            OFFSET   0.000000  22.077100   0.000000
            CHANNELS 3 Zrotation Xrotation Yrotation
            JOINT Neck
            {
                OFFSET   0.000000  23.254800  -0.000021
                CHANNELS 3 Zrotation Xrotation Yrotation
                JOINT Head
                {
                    OFFSET   0.000000  14.370000   1.956610
                    CHANNELS 3 Zrotation Xrotation Yrotation
                    End Site
                    {
                        OFFSET   0.000000  19.566000   0.000000
                    }
                }
            }
            JOINT LeftCollar
            {
                OFFSET   3.911900  19.017000  -0.467063
                CHANNELS 3 Zrotation Xrotation Yrotation
                JOINT LeftShoulder
                {
                    OFFSET  10.383700   0.000000   0.000000
                    CHANNELS 3 Zrotation Xrotation Yrotation
                    JOINT LeftElbow
                    {
                        OFFSET  26.662100   0.001529   0.000325
                        CHANNELS 3 Zrotation Xrotation Yrotation
                        JOINT LeftWrist
                        {
                            OFFSET  28.869000  -0.000011  -0.000096
                            CHANNELS 3 Zrotation Xrotation Yrotation
                            JOINT LeftFinger0
                            {
                                OFFSET   2.044650  -2.323460   3.252850
                                CHANNELS 3 Zrotation Xrotation Yrotation
                                JOINT LeftFinger01
                                {
                                    OFFSET   3.088130   0.000000   0.000000
                                    CHANNELS 3 Zrotation Xrotation Yrotation
                                    JOINT LeftFinger02
                                    {
                                        OFFSET   2.639460   0.000000   0.000000
                                        CHANNELS 3 Zrotation Xrotation Yrotation
                                        End Site
                                        {
                                            OFFSET   2.582190   0.000000   0.000000
                                        }
                                    }
                                }
                            }
                            JOINT LeftFinger1
                            {
                                OFFSET   8.364480   0.000000   3.252850
                                CHANNELS 3 Zrotation Xrotation Yrotation
                                JOINT LeftFinger11
                                {
                                    OFFSET   4.646930   0.000000   0.000000
                                    CHANNELS 3 Zrotation Xrotation Yrotation
                                    JOINT LeftFinger12
                                    {
                                        OFFSET   2.323460   0.000000   0.000000
                                        CHANNELS 3 Zrotation Xrotation Yrotation
                                        End Site
                                        {
                                            OFFSET   2.273050   0.000000   0.000000
                                        }
                                    }
                                }
                            }
                            JOINT LeftFinger2
                            {
                                OFFSET   8.364480   0.000016   1.078090
                                CHANNELS 3 Zrotation Xrotation Yrotation
                                JOINT LeftFinger21
                                {
                                    OFFSET   5.111620   0.000000   0.000000
                                    CHANNELS 3 Zrotation Xrotation Yrotation
                                    JOINT LeftFinger22
                                    {
                                        OFFSET   2.788160   0.000017   0.000000
                                        CHANNELS 3 Zrotation Xrotation Yrotation
                                        End Site
                                        {
                                            OFFSET   2.727660   0.000000   0.000000
                                        }
                                    }
                                }
                            }
                            JOINT LeftFinger3
                            {
                                OFFSET   7.899780   0.000015  -1.078090
                                CHANNELS 3 Zrotation Xrotation Yrotation
                                JOINT LeftFinger31
                                {
                                    OFFSET   4.646920   0.000000   0.000000
                                    CHANNELS 3 Zrotation Xrotation Yrotation
                                    JOINT LeftFinger32
                                    {
                                        OFFSET   2.323470   0.000000   0.000000
                                        CHANNELS 3 Zrotation Xrotation Yrotation
                                        End Site
                                        {
                                            OFFSET   2.273050   0.000000   0.000000
                                        }
                                    }
                                }
                            }
                            JOINT LeftFinger4
                            {
                                OFFSET   7.435090   0.000000  -3.252850
                                CHANNELS 3 Zrotation Xrotation Yrotation
                                JOINT LeftFinger41
                                {
                                    OFFSET   3.717550   0.000000   0.000000
                                    CHANNELS 3 Zrotation Xrotation Yrotation
                                    JOINT LeftFinger42
                                    {
                                        OFFSET   1.858760   0.000000   0.000000
                                        CHANNELS 3 Zrotation Xrotation Yrotation
                                        End Site
                                        {
                                            OFFSET   1.818440   0.000000   0.000000
                                        }
                                    }
                                }
                            }
                        }
                    }
                }
            }
            JOINT RightCollar
            {
                OFFSET  -3.911900  19.017000  -0.467062
                CHANNELS 3 Zrotation Xrotation Yrotation
                JOINT RightShoulder
                {
                    OFFSET -10.383700   0.000015   0.000000
                    CHANNELS 3 Zrotation Xrotation Yrotation
                    JOINT RightElbow
                    {
                        OFFSET -26.662100   0.001341   0.000385
                        CHANNELS 3 Zrotation Xrotation Yrotation
                        JOINT RightWrist
                        {
                            OFFSET -28.869000   0.000025  -0.000080
                            CHANNELS 3 Zrotation Xrotation Yrotation
                            JOINT RightFinger0
                            {
                                OFFSET  -2.044650  -2.323490   3.252850
                                CHANNELS 3 Zrotation Xrotation Yrotation
                                JOINT RightFinger01
                                {
                                    OFFSET  -3.088130   0.000000   0.000000
                                    CHANNELS 3 Zrotation Xrotation Yrotation
                                    JOINT RightFinger02
                                    {
                                        OFFSET  -2.639460   0.000000   0.000000
                                        CHANNELS 3 Zrotation Xrotation Yrotation
                                        End Site
                                        {
                                            OFFSET  -2.582190   0.000000   0.000000
                                        }
                                    }
                                }
                            }
                            JOINT RightFinger1
                            {
                                OFFSET  -8.364480   0.000000   3.252850
                                CHANNELS 3 Zrotation Xrotation Yrotation
                                JOINT RightFinger11
                                {
                                    OFFSET  -4.646930   0.000000   0.000000
                                    CHANNELS 3 Zrotation Xrotation Yrotation
                                    JOINT RightFinger12
                                    {
                                        OFFSET  -2.323470   0.000000   0.000000
                                        CHANNELS 3 Zrotation Xrotation Yrotation
                                        End Site
                                        {
                                            OFFSET  -2.273050   0.000000   0.000000
                                        }
                                    }
                                }
                            }
                            JOINT RightFinger2
                            {
                                OFFSET  -8.364480   0.000000   1.078090
                                CHANNELS 3 Zrotation Xrotation Yrotation
                                JOINT RightFinger21
                                {
                                    OFFSET  -5.111610   0.000000   0.000000
                                    CHANNELS 3 Zrotation Xrotation Yrotation
                                    JOINT RightFinger22
                                    {
                                        OFFSET  -2.788160   0.000000   0.000000
                                        CHANNELS 3 Zrotation Xrotation Yrotation
                                        End Site
                                        {
                                            OFFSET  -2.727660   0.000000   0.000000
                                        }
                                    }
                                }
                            }
                            JOINT RightFinger3
                            {
                                OFFSET  -7.899780   0.000000  -1.078090
                                CHANNELS 3 Zrotation Xrotation Yrotation
                                JOINT RightFinger31
                                {
                                    OFFSET  -4.646920   0.000000   0.000000
                                    CHANNELS 3 Zrotation Xrotation Yrotation
                                    JOINT RightFinger32
                                    {
                                        OFFSET  -2.323470   0.000000   0.000000
                                        CHANNELS 3 Zrotation Xrotation Yrotation
                                        End Site
                                        {
                                            OFFSET  -2.273050   0.000000   0.000000
                                        }
                                    }
                                }
                            }
                            JOINT RightFinger4
                            {
                                OFFSET  -7.435090   0.000000  -3.252850
                                CHANNELS 3 Zrotation Xrotation Yrotation
                                JOINT RightFinger41
                                {
                                    OFFSET  -3.717550   0.000000   0.000000
                                    CHANNELS 3 Zrotation Xrotation Yrotation
                                    JOINT RightFinger42
                                    {
                                        OFFSET  -1.858770   0.000000   0.000000
                                        CHANNELS 3 Zrotation Xrotation Yrotation
                                        End Site
                                        {
                                            OFFSET  -1.818440   0.000000   0.000000
                                        }
                                    }
                                }
                            }
                        }
                    }
                }
            }
        }
    }
    JOINT LeftHip
    {
        OFFSET   9.783010   0.000000   0.000000
        CHANNELS 3 Zrotation Xrotation Yrotation
        JOINT LeftKnee
        {
            OFFSET   0.000070 -41.789100   0.000028
            CHANNELS 3 Zrotation Xrotation Yrotation
            JOINT LeftAnkle
            {
                OFFSET   0.000087 -41.133200  -0.000100
                CHANNELS 3 Zrotation Xrotation Yrotation
                JOINT LeftToe
                {
                    OFFSET   0.000000  -6.358960  14.674500
                    CHANNELS 3 Zrotation Xrotation Yrotation
                    End Site
                    {
                        OFFSET   0.000000   0.000000   3.913200
                    }
                }
            }
        }
    }
    JOINT RightHip
    {
        OFFSET  -9.783020   0.000000   0.000000
        CHANNELS 3 Zrotation Xrotation Yrotation
        JOINT RightKnee
        {
            OFFSET   0.000044 -41.789100  -0.000870
            CHANNELS 3 Zrotation Xrotation Yrotation
            JOINT RightAnkle
            {
                OFFSET  -0.000090 -41.133200  -0.000245
                CHANNELS 3 Zrotation Xrotation Yrotation
                JOINT RightToe
                {
                    OFFSET   0.000000  -6.358960  14.674500
                    CHANNELS 3 Zrotation Xrotation Yrotation
                    End Site
                    {
                        OFFSET   0.000000   0.000000   3.913200
                    }
                }
            }
        }
    }
}
MOTION
Frames: 5
Frame Time:   0.016667
 -1.407260  89.496200  -1.057530  -1.416060  -3.787960   3.146820   0.747628   4.046270  -0.530444   1.538660   8.085080  -1.118130  -1.319480  -0.653108  -0.025143  -2.168770  -1.323020   7.227820  -4.192350   3.708590   9.589270 -77.901100   3.756810   0.683222  -0.785466   2.102200 -18.719700  10.551500  -2.270280  -3.352800  40.596200  31.384900 -46.222600 -29.350900  -0.000185   0.000000  -9.675470   0.000000  -0.001573 -33.818900  -0.851054   1.270070 -27.677700   0.001352  -0.000756 -19.374400   0.000335  -0.000190 -29.956700  -3.737600   6.461410 -45.251600   0.004377  -0.009229 -30.137600   0.003009  -0.005358 -27.926100  -5.099280   9.518010 -34.698800  -0.001368  -0.001026 -23.109400  -0.010325  -0.000525 -29.202200  -6.057470  10.691500 -44.654200  -0.000944   0.012578 -29.739700   0.004062  -0.008602   5.998330   5.229720   7.560120  69.460200  -4.563240  -2.836390   4.040980  -3.807670  19.182400 -16.234300   5.148060   4.360000 -40.506100  34.480700  68.453900  29.405900   0.009378  -0.005193   9.713010   0.000062   0.000281  32.427200   2.465860   3.874390  26.598500   0.007220  -0.005966  18.632700  -0.001953  -0.000248  28.655000   0.292879   0.546765  38.407500   0.001416  -0.001505  25.572000  -0.002558  -0.011572  28.600800  -1.756770  -3.212130  38.082600  -0.000640  -0.000458  25.354400  -0.000822  -0.011423  33.320100  -2.016890  -3.056720  50.067300   0.008089   0.001515  33.340300  -0.003220  -0.009273   3.388160   4.597990  -2.527740   0.468733   0.334962   3.872660  -2.162490  -1.830080  -0.297024   0.000000   0.000000  -0.000000  -0.053447   5.680780  -6.580960  -0.886143   1.813600 -13.139000   2.177010  -2.764980   0.950429   0.000000   0.000000   0.000000
 -1.412740  89.496200  -1.052230  -1.415630  -3.793340   3.146840   0.747689   4.047050  -0.528938   1.538680   8.086650  -1.115110  -1.327450  -0.652887  -0.025143  -2.181430  -1.322790   7.254090  -4.192370   3.708590   9.589500 -77.901100   3.765650   0.677354  -0.791233   2.115280 -18.732000  10.559300  -2.246650  -3.331340  40.615700  31.401600 -46.205900 -29.328600  -0.000188   0.000000  -9.664310  -0.000000  -0.001574 -33.805900  -0.852522   1.273010 -27.667000   0.001350  -0.000766 -19.366900   0.000333  -0.000196 -29.951400  -3.737600   6.461410 -45.243600   0.004376  -0.009240 -30.132200   0.003013  -0.005365 -27.928800  -5.099280   9.518060 -34.702300  -0.001375  -0.001023 -23.111800  -0.010328  -0.000522 -29.205200  -6.051680  10.679500 -44.655700  -0.000944   0.012585 -29.740700   0.004066  -0.008610   5.999650   5.229690   7.560050  69.461500  -4.549540  -2.828120   4.050490  -3.813300  19.194300 -16.228600   5.138010   4.351150 -40.506500  34.483200  68.460600  29.410800   0.009383  -0.005194   9.712890   0.000031   0.000285  32.431800   2.459080   3.863100  26.602300   0.007222  -0.005964  18.632900  -0.001955  -0.000247  28.655100   0.293390   0.542241  38.404700   0.001411  -0.001504  25.573000  -0.002560  -0.011572  28.600700  -1.756370  -3.214480  38.084600  -0.000641  -0.000456  25.359500  -0.000822  -0.011422  33.322800  -2.016890  -3.058930  50.068700   0.008089   0.001516  33.343200  -0.003221  -0.009276   3.393530   4.602050  -2.527820   0.468304   0.340689   3.885290  -2.168010  -1.830870  -0.316644  -0.000000   0.000000   0.000000  -0.050069   5.694280  -6.581230  -0.878580   1.805500 -13.154400   2.184770  -2.765220   0.972484  -0.000000   0.000000  -0.000000
 -1.422690  89.496200  -1.044520  -1.415010  -3.802180   3.146870   0.747792   4.049210  -0.526240   1.538730   8.091000  -1.109730  -1.340370  -0.652665  -0.025141  -2.202180  -1.322500   7.300040  -4.192400   3.708590   9.589720 -77.900900   3.779600   0.667983  -0.798523   2.136080 -18.753300  10.571100  -2.223050  -3.295910  40.635100  31.418400 -46.189200 -29.306300  -0.000197   0.000000  -9.653150   0.000000  -0.001574 -33.792700  -0.858324   1.282180 -27.656400   0.001346  -0.000792 -19.359500   0.000328  -0.000213 -29.946100  -3.737600   6.461410 -45.235500   0.004375  -0.009270 -30.126800   0.003023  -0.005382 -27.933800  -5.099280   9.518110 -34.720900  -0.001393  -0.001015 -23.124200  -0.010337  -0.000515 -29.211800  -6.045890  10.667500 -44.665200  -0.000947   0.012603 -29.747000   0.004076  -0.008633   6.002810   5.229660   7.559930  69.463700  -4.527530  -2.813630   4.064880  -3.818740  19.214400 -16.218300   5.124420   4.333440 -40.504200  34.485300  68.471100  29.418700   0.009395  -0.005200   9.712760   0.000000   0.000297  32.439100   2.449360   3.846810  26.608400   0.007226  -0.005957  18.633100  -0.001958  -0.000244  28.655100   0.293900   0.534237  38.401900   0.001397  -0.001497  25.575600  -0.002564  -0.011570  28.600600  -1.755960  -3.219240  38.094700  -0.000643  -0.000450  25.371100  -0.000823  -0.011421  33.330600  -2.016880  -3.063280  50.076800   0.008090   0.001518  33.351200  -0.003225  -0.009279   3.403930   4.608220  -2.527980   0.467781   0.350141   3.904370  -2.176910  -1.832550  -0.344639  -0.000000   0.000000   0.000000  -0.042509   5.714680  -6.581680  -0.867650   1.794110 -13.177600   2.195580  -2.765450   1.006020   0.000000   0.000000   0.000000
 -1.432520  89.496200  -1.040470  -1.415650  -3.809490   3.146740   0.747918   4.052700  -0.523513   1.538810   8.098010  -1.104320  -1.350290  -0.652729  -0.025129  -2.218490  -1.322700   7.343840  -4.192200   3.707490   9.589660 -77.900600   3.789610   0.661368  -0.799325   2.150290 -18.774000  10.580000  -2.239080  -3.267670  40.625800  31.411000 -46.184400 -29.314700  -0.000210  -0.000037  -9.657380  -0.000028  -0.001571 -33.825000  -0.872054   1.301160 -27.683400   0.001340  -0.000833 -19.377300   0.000318  -0.000241 -29.960400  -3.737610   6.461410 -45.257200   0.004371  -0.009319 -30.141300   0.003040  -0.005412 -27.940000  -5.099280   9.517760 -34.777900  -0.001423  -0.001000 -23.162100  -0.010351  -0.000505 -29.230400  -6.054880  10.676500 -44.695700  -0.000950   0.012631 -29.767300   0.004094  -0.008669   6.007550   5.229670   7.559800  69.465500  -4.512210  -2.800120   4.073080  -3.815280  19.231300 -16.208600   5.120270   4.312450 -40.495500  34.482500  68.478600  29.424400   0.009412  -0.005231   9.713650   0.000029   0.000316  32.445400   2.445920   3.840510  26.614000   0.007228  -0.005940  18.632600  -0.001962  -0.000239  28.655200   0.290472   0.527704  38.409100   0.001374  -0.001485  25.581200  -0.002567  -0.011566  28.600400  -1.758440  -3.223910  38.122900  -0.000648  -0.000441  25.390400  -0.000825  -0.011422  33.345000  -2.019720  -3.067260  50.098300   0.008095   0.001523  33.365800  -0.003230  -0.009277   3.416010   4.612660  -2.528190   0.467951   0.358048   3.917470  -2.183370  -1.834970  -0.358077  -0.000000   0.000000   0.000000  -0.031175   5.728740  -6.582090  -0.862404   1.789080 -13.192000   2.199900  -2.765290   1.027020  -0.000000   0.000000   0.000000
 -1.443120  89.496200  -1.038290  -1.416950  -3.815590   3.146500   0.747971   4.057350  -0.520920   1.538800   8.107350  -1.099190  -1.359160  -0.653182  -0.025116  -2.233260  -1.324880   7.385310  -4.191630   3.704770   9.589240 -77.900300   3.797690   0.655203  -0.797686   2.163930 -18.792500  10.584900  -2.261720  -3.240900  40.616000  31.403500 -46.179600 -29.326700  -0.000228  -0.000077  -9.663370  -0.000075  -0.001567 -33.858700  -0.885730   1.319890 -27.710900   0.001332  -0.000887 -19.397600   0.000305  -0.000278 -29.974800  -3.737610   6.461410 -45.279100   0.004366  -0.009384 -30.155900   0.003061  -0.005450 -27.944100  -5.099280   9.517180 -34.819800  -0.001463  -0.000981 -23.190000  -0.010371  -0.000491 -29.243800  -6.068290  10.692300 -44.718200  -0.000954   0.012667 -29.782300   0.004116  -0.008718   6.013020   5.229750   7.559710  69.467300  -4.496840  -2.786490   4.081250  -3.809910  19.247400 -16.197600   5.119730   4.289130 -40.484800  34.477400  68.484700  29.430300   0.009433  -0.005258   9.715160   0.000069   0.000344  32.449400   2.442310   3.834260  26.617200   0.007230  -0.005918  18.631500  -0.001967  -0.000232  28.655300   0.283684   0.518927  38.416300   0.001343  -0.001468  25.585200  -0.002573  -0.011560  28.599800  -1.763970  -3.231430  38.147400  -0.000654  -0.000430  25.406200  -0.000827  -0.011423  33.359900  -2.026160  -3.073920  50.121400   0.008102   0.001528  33.380900  -0.003237  -0.009276   3.428450   4.614980  -2.528400   0.468506   0.364772   3.924190  -2.189610  -1.837220  -0.364015  -0.000000   0.000000  -0.000000  -0.019997   5.735910  -6.582350  -0.859163   1.787320 -13.201200   2.201430  -2.765140   1.042320   0.000000   0.000000   0.000000
